<svg height="279" viewBox="0 0 279 279" width="279" xmlns="http://www.w3.org/2000/svg" xmlns:xlink="http://www.w3.org/1999/xlink"><linearGradient id="a" x1="12.559%" x2="115.948%" y1="17.455%" y2="100%"><stop offset="0" stop-color="#4ca1af"/><stop offset="1" stop-color="#c4e0e5"/></linearGradient><g fill="none" fill-rule="evenodd"><path d="m139.5 0c77.043723 0 139.5 62.4562774 139.5 139.5 0 77.043723-62.456277 139.5-139.5 139.5-77.0437226 0-139.5-62.456277-139.5-139.5 0-77.0437226 62.4562774-139.5 139.5-139.5zm0 32c-59.3706106 0-107.5 48.1293894-107.5 107.5 0 59.370611 48.1293894 107.5 107.5 107.5 59.370611 0 107.5-48.129389 107.5-107.5 0-59.3706106-48.129389-107.5-107.5-107.5z" fill="url(#a)"/><path d="m71.000063 78c34.241654 0 62 27.758346 62 62s-27.758346 62-62 62l-.000063-13.604072c.0871675.000464.1743898.000696.2616663.000696 26.5842381 0 48.1350207-21.550783 48.1350207-48.135021s-21.5507826-48.1350207-48.1350207-48.1350207l-.2616663.0014177z" fill="#4ca1af"/><path d="m146.000063 78c34.241654 0 62 27.758346 62 62s-27.758346 62-62 62l-.000063-13.604072c.087167.000464.17439.000696.261666.000696 26.584238 0 48.135021-21.550783 48.135021-48.135021s-21.550783-48.1350207-48.135021-48.1350207l-.261666.0014177z" fill="#c4e0e5" transform="matrix(-1 0 0 -1 354 280)"/></g></svg>